<svg width="448" height="93" viewBox="0 0 448 93" fill="none" xmlns="http://www.w3.org/2000/svg">
<path fill-rule="evenodd" clip-rule="evenodd" d="M55.2655 0.8274C33.7563 4.9344 17.4993 23.8432 17.4993 46.549C17.4993 50.4095 17.9693 54.1602 18.8551 57.7471H18.846C14.7264 50.802 12.3613 42.694 12.3613 34.0335C12.3613 24.4387 15.2642 15.522 20.2397 8.1136L20.2616 8.0824C27.7289 2.9824 36.7575 0 46.4827 0C49.4852 0 52.4212 0.2843 55.2655 0.8274Z" fill="#E2FF00"/>
<path fill-rule="evenodd" clip-rule="evenodd" d="M20.4123 7.98032C8.10721 26.0936 9.98232 50.9595 26.0377 67.0149C28.7675 69.7447 31.752 72.0646 34.9146 73.9745L34.9082 73.9809C27.0844 71.983 19.6787 67.9221 13.5548 61.7982C6.77112 55.0145 2.51892 46.658 0.798216 37.9024L0.791016 37.8618L0.792015 37.8562C2.46672 28.9718 6.74172 20.4809 13.6169 13.6056C15.74 11.4825 18.0171 9.60742 20.4123 7.98032Z" fill="url(#paint0_linear_226_240)"/>
<path fill-rule="evenodd" clip-rule="evenodd" d="M0.827299 37.6507C4.9344 59.1598 23.8431 75.4168 46.5489 75.4168C50.4094 75.4168 54.1602 74.9468 57.7471 74.061V74.0701C50.8021 78.1897 42.694 80.5548 34.0335 80.5548C24.4371 80.5548 15.519 77.6509 8.1099 72.6739L8.0824 72.6546C2.9827 65.1874 0 56.1584 0 46.4335C0 43.431 0.284199 40.4949 0.827299 37.6507Z" fill="#E2FF00"/>
<path fill-rule="evenodd" clip-rule="evenodd" d="M73.9812 58.0097L73.9748 58.0033C72.0648 61.166 69.745 64.1505 67.0152 66.8803C50.9598 82.9357 26.0938 84.8108 7.98047 72.5056C9.60757 74.9008 11.4827 77.178 13.6058 79.301C20.4825 86.1777 28.9755 90.4529 37.862 92.1269L37.8971 92.1209C46.6547 90.4009 55.0134 86.1483 61.7985 79.3631C67.9224 73.2393 71.9833 65.8336 73.9812 58.0097Z" fill="url(#paint1_linear_226_240)"/>
<path fill-rule="evenodd" clip-rule="evenodd" d="M37.666 92.0829C59.1752 87.9763 75.432 69.0675 75.432 46.3617C75.432 42.5013 74.962 38.7506 74.0764 35.1637H74.0854C78.205 42.1087 80.57 50.2168 80.57 58.8773C80.57 68.4729 77.667 77.3903 72.6904 84.7991L72.6699 84.8283L72.6687 84.8291C65.2016 89.9289 56.1735 92.9109 46.4488 92.9109C43.4463 92.9109 40.5103 92.6269 37.666 92.0829Z" fill="#E2FF00"/>
<path fill-rule="evenodd" clip-rule="evenodd" d="M72.5101 84.9421C84.8151 66.8287 82.9401 41.9628 66.8847 25.9073C64.1549 23.1776 61.1705 20.8577 58.0078 18.9478L58.0142 18.9414C65.8381 20.9393 73.2437 25.0002 79.3681 31.1241C86.1521 37.909 90.4051 46.2674 92.1251 55.0246L92.1311 55.0605C90.4571 63.947 86.1821 72.44 79.3051 79.3167C77.1821 81.4398 74.9051 83.3149 72.5101 84.9421ZM92.2111 54.6286L92.2171 54.6299L92.2201 54.5785L92.2111 54.6286Z" fill="url(#paint2_linear_226_240)"/>
<path fill-rule="evenodd" clip-rule="evenodd" d="M35.1797 18.8172V18.8263C38.7666 17.9405 42.5174 17.4705 46.3779 17.4705C69.0837 17.4705 87.9928 33.7275 92.0998 55.2366C92.6428 52.3924 92.9268 49.4563 92.9268 46.4538C92.9268 36.729 89.9448 27.7008 84.8448 20.2336L84.8168 20.2131C77.4078 15.2363 68.4895 12.3325 58.8934 12.3325C50.2329 12.3325 42.1248 14.6977 35.1797 18.8172ZM84.5948 19.8702V19.8713L84.5958 19.8708L84.5948 19.8702Z" fill="#E2FF00"/>
<path fill-rule="evenodd" clip-rule="evenodd" d="M84.9714 20.4157C66.858 8.11051 41.992 9.98561 25.9366 26.041C23.2069 28.7708 20.887 31.7553 18.9771 34.9179L18.9707 34.9116C20.9686 27.0877 25.0295 19.682 31.1534 13.5581C37.9384 6.77311 46.2969 2.52061 55.0544 0.800511L55.0898 0.794312L55.0925 0.794711C63.978 2.46901 72.47 6.74421 79.3464 13.6203C81.4694 15.7433 83.3444 18.0205 84.9714 20.4157Z" fill="url(#paint3_linear_226_240)"/>
<path d="M164.8 7.392V52L155.136 47.84V30.688L137.664 48.16L130.624 41.12V37.152L110.464 16.992V7.328L137.664 34.528L164.8 7.392ZM107.84 52V18.72L128 38.88V42.848L117.44 32.352V52H107.84ZM182.053 36.832V42.336H204.261V51.936H172.453V28.128H175.205V33.76H184.037V36.832H182.053ZM206.885 16.864H184.677V24.544H206.821L203.109 34.08L203.045 34.208H186.661V31.136H177.893V25.504H175.077V7.264H206.885V16.864ZM270.425 7.392V52L260.761 47.84V30.688L243.289 48.16L236.249 41.12V37.152L216.089 16.992V7.328L243.289 34.528L270.425 7.392ZM213.465 52V18.72L233.625 38.88V42.848L223.065 32.352V52H213.465ZM312.254 26.016C315.006 28.576 316.734 32.224 316.734 36.256C316.734 44 310.462 50.272 302.718 50.272H297.726V43.808H291.326V40.608H302.718C305.086 40.608 307.07 38.688 307.07 36.256C307.07 33.824 305.086 31.84 302.718 31.84H288.574V46.432H295.102V52H278.974V9.952H285.502V22.24H301.822C303.23 22.24 304.446 21.024 304.446 19.616C304.446 18.144 303.23 16.992 301.822 16.992H291.198V19.616H288.126V7.328H301.822C308.606 7.328 314.11 12.832 314.11 19.616C314.11 21.92 313.406 24.16 312.254 26.016ZM332.053 36.832V42.336H354.261V51.936H322.453V28.128H325.205V33.76H334.037V36.832H332.053ZM356.885 16.864H334.677V24.544H356.821L353.109 34.08L353.045 34.208H336.661V31.136H327.893V25.504H325.077V7.264H356.885V16.864ZM376.073 16.992V21.408H372.937V7.392L387.913 7.328C395.657 7.328 401.929 13.6 401.929 21.344C401.929 26.592 399.049 31.136 394.825 33.568L391.241 28.192H376.073V25.76H387.913C390.345 25.76 392.329 23.776 392.329 21.344C392.329 18.912 390.345 16.992 387.913 16.992H376.073ZM392.137 36.192L402.249 52H390.729L381.833 37.984H373.449V47.84L363.849 52V9.952H370.313V23.968H373.449V30.816H388.617L392.201 36.192H392.137ZM430.484 28.32C436.308 28.32 441.044 32.992 441.044 38.688H444.052C444.052 46.048 437.972 52 430.484 52H409.428V42.528H430.484C432.66 42.528 434.452 40.8 434.452 38.688C434.452 36.512 432.66 34.784 430.484 34.784H420.116C412.628 34.784 406.548 28.832 406.548 21.472H412.82C413.012 25.248 418.004 28.32 421.524 28.32H430.484ZM422.228 26.272C418.324 26.272 415.188 23.136 415.188 19.36H408.66C408.66 12 414.74 5.984 422.228 5.984H445.908L436.436 15.456H422.228C420.052 15.456 418.26 17.248 418.26 19.36C418.26 21.472 420.052 23.264 422.228 23.264H432.596C435.54 23.264 438.996 24.736 441.62 27.168C444.308 29.6 446.228 32.928 446.228 36.576H443.348C443.028 31.072 437.396 26.272 432.596 26.272H422.228Z" fill="#F7390C"/>
<path d="M110.12 81.44V92H107.432V67.872H111.4C112.723 67.872 113.853 67.9467 114.792 68.096C115.731 68.2453 116.595 68.5973 117.384 69.152C118.259 69.7493 118.931 70.5387 119.4 71.52C119.869 72.5013 120.104 73.5467 120.104 74.656C120.104 75.6587 119.901 76.6187 119.496 77.536C119.112 78.4533 118.547 79.2213 117.8 79.84C117.053 80.4587 116.2 80.8853 115.24 81.12C114.301 81.3333 113.245 81.44 112.072 81.44H110.12ZM110.12 70.368V78.944H111.912C112.701 78.944 113.416 78.88 114.056 78.752C114.717 78.6027 115.304 78.368 115.816 78.048C116.328 77.7067 116.723 77.2587 117 76.704C117.277 76.128 117.416 75.424 117.416 74.592C117.416 73.6533 117.245 72.896 116.904 72.32C116.563 71.744 116.093 71.3173 115.496 71.04C114.92 70.7627 114.28 70.5813 113.576 70.496C112.872 70.4107 112.051 70.368 111.112 70.368H110.12ZM153.094 67.872V89.504H159.75V92H150.406V67.872H153.094ZM203.206 85.152H192.902L189.99 92H187.046L198.182 66.72L209.03 92H206.054L203.206 85.152ZM202.15 82.656L198.118 72.992L193.99 82.656H202.15ZM242.378 70.368V92H239.69V70.368H233.866V67.872H248.266V70.368H242.378ZM288.865 70.368H280.577V77.536H288.609V80.032H280.577V92H277.889V67.872H288.865V70.368ZM331.411 67.456C333.096 67.456 334.696 67.776 336.211 68.416C337.747 69.056 339.101 69.9627 340.275 71.136C341.448 72.288 342.355 73.632 342.995 75.168C343.656 76.6827 343.987 78.2827 343.987 79.968C343.987 81.6747 343.656 83.2853 342.995 84.8C342.355 86.3147 341.448 87.648 340.275 88.8C339.123 89.9307 337.779 90.816 336.243 91.456C334.707 92.096 333.096 92.416 331.411 92.416C329.725 92.416 328.115 92.096 326.579 91.456C325.064 90.816 323.72 89.9307 322.547 88.8C321.373 87.648 320.456 86.3147 319.795 84.8C319.155 83.2853 318.835 81.6747 318.835 79.968C318.835 78.2827 319.155 76.6827 319.795 75.168C320.456 73.632 321.363 72.288 322.515 71.136C323.688 69.9627 325.043 69.056 326.579 68.416C328.115 67.776 329.725 67.456 331.411 67.456ZM331.411 69.952C330.045 69.952 328.755 70.208 327.539 70.72C326.344 71.232 325.288 71.9573 324.371 72.896C323.475 73.8133 322.771 74.88 322.259 76.096C321.768 77.312 321.523 78.592 321.523 79.936C321.523 81.28 321.779 82.56 322.291 83.776C322.803 84.9707 323.507 86.0373 324.403 86.976C325.32 87.8933 326.376 88.6187 327.571 89.152C328.787 89.664 330.067 89.92 331.411 89.92C332.755 89.92 334.024 89.664 335.219 89.152C336.435 88.6187 337.491 87.8933 338.387 86.976C339.304 86.0373 340.019 84.9707 340.531 83.776C341.043 82.56 341.299 81.28 341.299 79.936C341.299 78.592 341.043 77.312 340.531 76.096C340.04 74.88 339.336 73.8133 338.419 72.896C337.523 71.9573 336.467 71.232 335.251 70.72C334.056 70.208 332.776 69.952 331.411 69.952ZM377.212 70.368V79.04H378.044C378.919 79.04 379.698 78.9867 380.38 78.88C381.084 78.7733 381.724 78.5707 382.3 78.272C382.876 77.952 383.324 77.504 383.644 76.928C383.986 76.352 384.156 75.616 384.156 74.72C384.156 73.76 383.996 72.992 383.676 72.416C383.356 71.8187 382.919 71.3813 382.364 71.104C381.81 70.8053 381.18 70.6133 380.476 70.528C379.794 70.4213 378.972 70.368 378.012 70.368H377.212ZM377.212 81.408V92H374.524V67.872H378.012C379.25 67.872 380.391 67.9787 381.436 68.192C382.482 68.384 383.41 68.7253 384.22 69.216C385.031 69.6853 385.671 70.368 386.14 71.264C386.61 72.1387 386.844 73.2267 386.844 74.528C386.844 76.384 386.3 77.92 385.212 79.136C384.124 80.3307 382.652 81.0133 380.796 81.184L388.476 92H385.18L377.884 81.408H377.212ZM416.988 92L421.884 66.496L430.652 86.752L439.452 66.496L444.348 92H441.596L438.492 75.68H438.428L430.652 92.992L422.908 75.68H422.844L419.74 92H416.988Z" fill="#F7390C"/>
<defs>
<linearGradient id="paint0_linear_226_240" x1="34.9102" y1="73.9872" x2="20.4102" y2="7.97823" gradientUnits="userSpaceOnUse">
<stop offset="3.65186e-05" stop-color="#FF7C00"/>
<stop offset="1" stop-color="#F7390C"/>
</linearGradient>
<linearGradient id="paint1_linear_226_240" x1="73.9875" y1="58.0078" x2="7.97847" y2="72.5078" gradientUnits="userSpaceOnUse">
<stop offset="3.65186e-05" stop-color="#FF7C00"/>
<stop offset="1" stop-color="#F7390C"/>
</linearGradient>
<linearGradient id="paint2_linear_226_240" x1="58.0122" y1="18.9351" x2="72.5122" y2="84.9441" gradientUnits="userSpaceOnUse">
<stop offset="3.65186e-05" stop-color="#FF7C00"/>
<stop offset="1" stop-color="#F7390C"/>
</linearGradient>
<linearGradient id="paint3_linear_226_240" x1="18.9644" y1="34.9135" x2="84.9734" y2="20.4136" gradientUnits="userSpaceOnUse">
<stop offset="3.65186e-05" stop-color="#FF7C00"/>
<stop offset="1" stop-color="#F7390C"/>
</linearGradient>
</defs>
</svg>
